PathFileType	4	(X/Y/Z)	D:\Share\Shared_Data\Ergonomics\Sit To Stand Pertubation\S2\Unperturbed.trc
DataRate	CameraRate	NumFrames	NumMarkers	Units	OrigDataRate	OrigDataStartFrame	OrigNumFrames	
100	100	9	18	m	100	3281	241
Frame#	Time	R_Toe			R_ASIS			R_Pelvis			V_Sacral			L_Pelvis			L_ASIS			Clavical			R_Acromium			L_Acromium			Sternum			Torso			R_Thigh_Med			R_Thigh_Lat			R_Thigh			R_Shank_Med			R_Shank_Lat			R_Shank			R_Heel			
		X1	Y1	Z1	X2	Y2	Z2	X3	Y3	Z3	X4	Y4	Z4	X5	Y5	Z5	X6	Y6	Z6	X7	Y7	Z7	X8	Y8	Z8	X9	Y9	Z9	X10	Y10	Z10	X11	Y11	Z11	X12	Y12	Z12	X13	Y13	Z13	X14	Y14	Z14	X15	Y15	Z15	X16	Y16	Z16	X17	Y17	Z17	X18	Y18	Z18	

3281	32.8	0.44079669	0.066754189	0.14537305	-0.015526942	0.64319177	0.14414633	-0.093929932	0.641047	0.1831891	-0.22776112	0.57595819	0.030332191	-0.13818405	0.63469965	-0.15548639	-0.039462761	0.64937683	-0.12520451	0.07207827	0.99725146	0.0041658854	-0.012081593	1.0417887	0.20868315	-0.02372744	1.0454567	-0.17883308	0.078917023	0.83285583	0.0055311422	0.070496643	0.95427246	-0.11023209	0.38186295	0.50194186	0.12211726	0.35471967	0.50952197	0.2264803	0.19461018	0.62177582	0.17495988	0.30376407	0.10879857	0.11024693	0.28596793	0.10200098	0.20236052	0.34356683	0.35773907	0.23860529	0.20376834	0.061696815	0.15325732
3282	32.81	0.44076074	0.06677404	0.14536276	-0.014273067	0.64287549	0.14411833	-0.092761497	0.64128595	0.1830619	-0.2272868	0.57690729	0.030356413	-0.13737071	0.63544879	-0.15604501	-0.038074867	0.64920441	-0.12532231	0.078357796	0.99495392	0.00391941	-0.0047597136	1.0406421	0.20846321	-0.016819778	1.044338	-0.17905563	0.083070656	0.83058179	0.0053618178	0.076190933	0.95200159	-0.11038935	0.38189481	0.50183081	0.12184818	0.35483273	0.50943863	0.22624651	0.19474648	0.62172784	0.17475227	0.30368506	0.1087447	0.11017053	0.28592026	0.10199899	0.20227858	0.34367313	0.35768195	0.23840152	0.20373674	0.061642414	0.15324675
3283	32.82	0.44072934	0.066787682	0.14535237	-0.012893133	0.64256433	0.14409354	-0.091528679	0.64151678	0.1829314	-0.2267296	0.57792554	0.030371437	-0.13640053	0.6362796	-0.15639557	-0.036573277	0.64902039	-0.12544268	0.084766945	0.992534	0.0036648142	0.0028062062	1.0393867	0.20824306	-0.0097084932	1.0431182	-0.17928947	0.087340775	0.82821796	0.0051864529	0.082045151	0.94962885	-0.11054546	0.38196884	0.50172198	0.1216022	0.35497601	0.50935977	0.22603809	0.19490607	0.62167163	0.17454568	0.30361395	0.10869865	0.1101105	0.28588055	0.10199422	0.20221742	0.34379083	0.35762805	0.23822537	0.20370985	0.061588165	0.15323663
3284	32.83	0.44070261	0.066794258	0.14534396	-0.011413764	0.64224127	0.14406989	-0.090229813	0.64174524	0.18279669	-0.22608075	0.57901703	0.030379066	-0.13526265	0.63713171	-0.15654372	-0.034949558	0.64883118	-0.12555624	0.091298073	0.98999371	0.0034007075	0.010606807	1.0380245	0.20801915	-0.0023964767	1.0417964	-0.17954102	0.091715645	0.82576038	0.0050078745	0.088057167	0.9471557	-0.1107085	0.38208734	0.50161481	0.12138589	0.35515231	0.50928687	0.22585765	0.19509119	0.62161084	0.17434265	0.30355402	0.10866187	0.1100682	0.28584891	0.10198598	0.2021778	0.34391998	0.35757788	0.23807741	0.20368767	0.061536453	0.15323032
3285	32.84	0.44068045	0.066793579	0.14533838	-0.0098836775	0.64186896	0.14405157	-0.08886293	0.6419776	0.18265475	-0.22533249	0.58018378	0.030379982	-0.13395197	0.63796625	-0.15651857	-0.033203049	0.64863776	-0.12565231	0.097948807	0.98733051	0.0031246631	0.018632059	1.0365571	0.20778699	0.005114202	1.0403704	-0.17981374	0.096184212	0.8232038	0.0048271847	0.094228836	0.94458093	-0.11088602	0.38225348	0.50150775	0.12120643	0.35536557	0.50921893	0.22570798	0.19530658	0.62154828	0.1741469	0.30350751	0.10863463	0.11004274	0.28582483	0.10197389	0.20215765	0.34406366	0.35752994	0.23795804	0.20367004	0.061488541	0.15322879
3286	32.85	0.44066272	0.066785942	0.14533517	-0.0083769293	0.64138483	0.14404799	-0.087426613	0.64221857	0.18250478	-0.22447771	0.5814256	0.030374191	-0.13246768	0.63876642	-0.15635545	-0.031338797	0.64843378	-0.12571879	0.10472373	0.9845387	0.0028341939	0.026871983	1.0349841	0.20754097	0.012823126	1.0388348	-0.18010854	0.10073784	0.8205448	0.0046418452	0.10056509	0.94189917	-0.11108292	0.38247238	0.5013985	0.12107082	0.35562115	0.50915302	0.22559297	0.19555945	0.62148523	0.17396312	0.30347629	0.10861649	0.11003165	0.28580774	0.10195807	0.20215314	0.34422787	0.35748093	0.23786812	0.20365665	0.061444721	0.15323082
3287	32.86	0.44064905	0.066772141	0.14533325	-0.0069744582	0.6407146	0.14407417	-0.085918282	0.64246924	0.18235439	-0.2235098	0.58274084	0.030362255	-0.13081133	0.63952765	-0.15608459	-0.029361137	0.64820801	-0.12574487	0.11163392	0.98161224	0.0025278754	0.03531641	1.0333032	0.20727437	0.020731382	1.0371826	-0.18042523	0.1053742	0.81778241	0.004447475	0.10707136	0.93910181	-0.1112998	0.38275171	0.50128455	0.12098566	0.35592578	0.50908466	0.22551854	0.19585818	0.62142072	0.17379691	0.30346155	0.10860681	0.11003188	0.28579675	0.1019389	0.20215993	0.34442084	0.35742636	0.23780927	0.20364696	0.061404331	0.15323395
3288	32.87	0.44063879	0.066753502	0.14533168	-0.0057085361	0.63981482	0.14415076	-0.08433036	0.64272589	0.18221886	-0.22242245	0.5841272	0.030345188	-0.12898564	0.64025281	-0.15572664	-0.027267607	0.64794891	-0.12572439	0.11869403	0.97854736	0.0022047935	0.043954388	1.0315114	0.20697951	0.028840214	1.0354048	-0.18076385	0.11009924	0.8149173	0.0042424603	0.1137506	0.93617969	-0.11153175	0.38310114	0.5011636	0.12095697	0.35628699	0.50900888	0.22549243	0.19621141	0.62135211	0.17365468	0.30346381	0.1086048	0.11004078	0.28579086	0.10191663	0.20217448	0.34465158	0.35736115	0.23778467	0.2036403	0.061365829	0.15323616
3289	32.88	0.44063095	0.066731903	0.14533025	-0.0045108013	0.6387168	0.14429936	-0.082647438	0.64298053	0.18211209	-0.2212092	0.5855827	0.030323528	-0.12699535	0.6409491	-0.15529553	-0.02504981	0.64764758	-0.12565638	0.1259183	0.97534296	0.0018636367	0.052773094	1.0296045	0.20664943	0.037149513	1.0334929	-0.18112419	0.1149228	0.81195251	0.0040310497	0.12060119	0.93312585	-0.11176863	0.38353174	0.50103397	0.1209902	0.35671252	0.50892044	0.22552325	0.19662732	0.62127515	0.17354309	0.30348264	0.10860986	0.11005677	0.28578815	0.10189117	0.20219467	0.34492804	0.35727963	0.23779897	0.20363567	0.06132703	0.1532368
